# Wavefront OBJ file
# Exported by Misfit Model 3D 1.3.7
# Wed Dec  7 21:56:50 2011

g cube

# 20 Vertices
v 3.96 -1.242578 6.060823
v 3.96 -1.242578 -1.859177
v 3.96 6.677422 6.060823
v 3.96 6.677422 -1.859177
v -3.96 -1.242578 -1.859177
v -3.96 -1.242578 6.060823
v -3.96 6.677422 -1.859177
v -3.96 6.677422 6.060823
v 3.76875 1.187422 -3.996677
v 3.76875 1.187422 -11.534177
v 3.76875 8.724922 -3.996677
v 3.76875 8.724922 -11.534177
v -3.76875 1.187422 -11.534177
v -3.76875 1.187422 -3.996677
v -3.76875 8.724922 -11.534177
v -3.76875 8.724922 -3.996677
v -6.0 -100.0 -100.0
v -6.0 100.0 -100.0
v -6.0 100.0 100.0
v -6.0 -100.0 100.0

# 78 Texture Coordinates
vt 0.0 1.0
vt 0.0 0.0
vt 1.0 0.0
vt 0.0 1.0
vt 0.0 0.0
vt 1.0 0.0
vt 0.0 1.0
vt 0.0 0.0
vt 1.0 0.0
vt 0.0 1.0
vt 0.0 0.0
vt 1.0 0.0
vt 0.0 1.0
vt 0.0 0.0
vt 1.0 0.0
vt 0.0 1.0
vt 0.0 0.0
vt 1.0 0.0
vt 0.0 1.0
vt 0.0 0.0
vt 1.0 0.0
vt 0.0 1.0
vt 0.0 0.0
vt 1.0 0.0
vt 0.0 1.0
vt 0.0 0.0
vt 1.0 0.0
vt 0.0 1.0
vt 0.0 0.0
vt 1.0 0.0
vt 0.0 1.0
vt 0.0 0.0
vt 1.0 0.0
vt 0.0 1.0
vt 0.0 0.0
vt 1.0 0.0
vt 0.0 1.0
vt 0.0 0.0
vt 1.0 0.0
vt 0.0 1.0
vt 0.0 0.0
vt 1.0 0.0
vt 0.0 1.0
vt 0.0 0.0
vt 1.0 0.0
vt 0.0 1.0
vt 0.0 0.0
vt 1.0 0.0
vt 0.0 1.0
vt 0.0 0.0
vt 1.0 0.0
vt 0.0 1.0
vt 0.0 0.0
vt 1.0 0.0
vt 0.0 1.0
vt 0.0 0.0
vt 1.0 0.0
vt 0.0 1.0
vt 0.0 0.0
vt 1.0 0.0
vt 0.0 1.0
vt 0.0 0.0
vt 1.0 0.0
vt 0.0 1.0
vt 0.0 0.0
vt 1.0 0.0
vt 0.0 1.0
vt 0.0 0.0
vt 1.0 0.0
vt 0.0 1.0
vt 0.0 0.0
vt 1.0 0.0
vt 0.0 1.0
vt 0.0 0.0
vt 1.0 0.0
vt 0.0 1.0
vt 0.0 0.0
vt 1.0 0.0

# 78 Vertex Normals
vn 1.0 0.0 0.0
vn 1.0 0.0 0.0
vn 1.0 0.0 0.0
vn 1.0 0.0 0.0
vn 1.0 0.0 0.0
vn 1.0 0.0 0.0
vn -1.0 0.0 0.0
vn -1.0 0.0 0.0
vn -1.0 0.0 0.0
vn -1.0 0.0 0.0
vn -1.0 0.0 0.0
vn -1.0 0.0 0.0
vn 0.0 0.0 1.0
vn 0.0 0.0 1.0
vn 0.0 0.0 1.0
vn 0.0 0.0 1.0
vn 0.0 0.0 1.0
vn 0.0 0.0 1.0
vn 0.0 0.0 -1.0
vn 0.0 0.0 -1.0
vn 0.0 0.0 -1.0
vn 0.0 0.0 -1.0
vn 0.0 0.0 -1.0
vn 0.0 0.0 -1.0
vn 0.0 1.0 0.0
vn 0.0 1.0 0.0
vn 0.0 1.0 0.0
vn 0.0 1.0 0.0
vn 0.0 1.0 0.0
vn 0.0 1.0 0.0
vn 0.0 -1.0 0.0
vn 0.0 -1.0 0.0
vn 0.0 -1.0 0.0
vn 0.0 -1.0 0.0
vn 0.0 -1.0 0.0
vn 0.0 -1.0 0.0
vn 1.0 0.0 0.0
vn 1.0 0.0 0.0
vn 1.0 0.0 0.0
vn 1.0 0.0 0.0
vn 1.0 0.0 0.0
vn 1.0 0.0 0.0
vn -1.0 0.0 0.0
vn -1.0 0.0 0.0
vn -1.0 0.0 0.0
vn -1.0 0.0 0.0
vn -1.0 0.0 0.0
vn -1.0 0.0 0.0
vn 0.0 0.0 1.0
vn 0.0 0.0 1.0
vn 0.0 0.0 1.0
vn 0.0 0.0 1.0
vn 0.0 0.0 1.0
vn 0.0 0.0 1.0
vn 0.0 0.0 -1.0
vn 0.0 0.0 -1.0
vn 0.0 0.0 -1.0
vn 0.0 0.0 -1.0
vn 0.0 0.0 -1.0
vn 0.0 0.0 -1.0
vn 0.0 1.0 0.0
vn 0.0 1.0 0.0
vn 0.0 1.0 0.0
vn 0.0 1.0 0.0
vn 0.0 1.0 0.0
vn 0.0 1.0 0.0
vn 0.0 -1.0 0.0
vn 0.0 -1.0 0.0
vn 0.0 -1.0 0.0
vn 0.0 -1.0 0.0
vn 0.0 -1.0 0.0
vn 0.0 -1.0 0.0
vn 1.0 0.0 0.0
vn 1.0 0.0 0.0
vn 1.0 0.0 0.0
vn 1.0 0.0 0.0
vn 1.0 0.0 0.0
vn 1.0 0.0 0.0

# cube, 26 grouped triangles

g cube
usemtl red

f 1/1/1 2/2/2 3/3/3
f 2/4/4 4/5/5 3/6/6
f 5/7/7 6/8/8 7/9/9
f 6/10/10 8/11/11 7/12/12
f 3/13/13 6/14/14 1/15/15
f 3/16/16 8/17/17 6/18/18
f 7/19/19 2/20/20 5/21/21
f 7/22/22 4/23/23 2/24/24
f 3/25/25 7/26/26 8/27/27
f 3/28/28 4/29/29 7/30/30
f 2/31/31 6/32/32 5/33/33
f 2/34/34 1/35/35 6/36/36
f 9/37/37 10/38/38 11/39/39
f 10/40/40 12/41/41 11/42/42
f 13/43/43 14/44/44 15/45/45
f 14/46/46 16/47/47 15/48/48
f 11/49/49 14/50/50 9/51/51
f 11/52/52 16/53/53 14/54/54
f 15/55/55 10/56/56 13/57/57
f 15/58/58 12/59/59 10/60/60
f 11/61/61 15/62/62 16/63/63
f 11/64/64 12/65/65 15/66/66
f 10/67/67 14/68/68 13/69/69
f 10/70/70 9/71/71 14/72/72

usemtl grey
f 17/73/73 18/74/74 19/75/75
f 17/76/76 19/77/77 20/78/78
